<svg id="Component_16_1" data-name="Component 16 – 1" xmlns="http://www.w3.org/2000/svg" width="97" height="228" viewBox="0 0 97 228">
  <rect id="Rectangle_121" data-name="Rectangle 121" width="97" height="228" fill="#fff" opacity="0.005"/>
  <rect id="Rectangle_113" data-name="Rectangle 113" width="227.78" height="11.096" transform="translate(52.988 0.22) rotate(90)" fill="#465975" opacity="0.679"/>
  <rect id="Rectangle_115" data-name="Rectangle 115" width="227.78" height="3.829" transform="translate(49.221 0.22) rotate(90)" fill="#c4ccd7" opacity="0.993"/>
  <path id="Union_15" data-name="Union 15" d="M124.345,47.711a16.487,16.487,0,0,0-6.464-2.8,31.825,31.825,0,0,0-8.632,0H56.18a29.532,29.532,0,0,0-8.314,0,15.62,15.62,0,0,0-6.225,2.8s-11.147,4.335-18.519,1.1-10.959-14.04-10.959-14.04A49.18,49.18,0,0,1,4.262,34C.676,33.272,0,27.288,0,27.288V24.673s-.187-4.934,2.855-7.058,9.306-1.436,9.306-1.436S15.238,4.734,24.044,1.135,43.4,3.648,43.4,3.648a16.761,16.761,0,0,0,4.98,1.819,20.681,20.681,0,0,0,5.642,0h57.461a22.277,22.277,0,0,0,5.858,0,17.765,17.765,0,0,0,5.171-1.819s10.963-6.112,20.105-2.513,12.332,15.044,12.332,15.044,6.509-.687,9.666,1.436,2.963,7.058,2.963,7.058v2.614s-.7,5.984-4.42,6.714a53.02,53.02,0,0,1-8.209.772s-3.727,10.807-11.379,14.04a17.57,17.57,0,0,1-6.792,1.2A40.583,40.583,0,0,1,124.345,47.711Z" transform="translate(72.91 34.021) rotate(90)" fill="#3d99e1" stroke="#3d5eb7" stroke-width="3"/>
  <path id="Path_142" data-name="Path 142" d="M0,12.462l16.284,1.061S23.6,6.806,30.951,6.1,45.705,10.68,45.705,10.68h74.373s9.052-3.718,16.107-3.467A21.927,21.927,0,0,1,148.3,11.682l17.907-.014s.195.017-.828-2.48a5.349,5.349,0,0,0-3.48-3.058l-12.206-.592s-7.073-4.326-14.477-4.326-15.139,4.326-15.139,4.326L48.545,4.726s-9.527-5.359-18-4.664S14.655,7.5,14.655,7.5L1.567,8.236A3.142,3.142,0,0,0,.528,9.879C.262,10.947,0,12.462,0,12.462Z" transform="translate(62.164 35.134) rotate(90)" fill="#74bcf5" opacity="0.355"/>
  <path id="Path_143" data-name="Path 143" d="M0,1.093,16.16,0s7.378,6.731,14.8,7.443S45.845,2.849,45.845,2.849h75.038s9.133,3.726,16.251,3.475a22.2,22.2,0,0,0,12.224-4.479L167.88.927a8.784,8.784,0,0,1-.531,3.635A8.1,8.1,0,0,1,165.1,7.347L150.763,8s-7.136,4.335-14.606,4.335S120.882,8,120.882,8L48.71,8.815s-9.612,5.37-18.161,4.674S14.517,6.032,14.517,6.032L1.4,5.31A7.559,7.559,0,0,1,.5,3.287C.235,2.217,0,1.093,0,1.093Z" transform="translate(46.08 33.917) rotate(90)" fill="#3d5eb7" opacity="0.397"/>
  <path id="Subtraction_1" data-name="Subtraction 1" d="M135.432,18.438a31.689,31.689,0,0,1-4.6-.36c-1.293-.191-2.632-.457-3.979-.791A39.064,39.064,0,0,1,123,16.137,14,14,0,0,0,121.179,15a16.453,16.453,0,0,0-4.646-1.662,21.812,21.812,0,0,0-3.915-.311,37.3,37.3,0,0,0-4.716.311H54.831a34.814,34.814,0,0,0-4.543-.311,20.262,20.262,0,0,0-3.771.311A15.3,15.3,0,0,0,42.042,15a13.378,13.378,0,0,0-1.75,1.136,36.908,36.908,0,0,1-3.715,1.15c-1.3.334-2.587.6-3.832.791a29.433,29.433,0,0,1-4.428.359,16.3,16.3,0,0,1-6.544-1.2,14.9,14.9,0,0,1-4.82-3.557,26.282,26.282,0,0,1-3.422-4.675,34.57,34.57,0,0,1-2.716-5.8v0h0a49.928,49.928,0,0,1-7.9-.771A4.436,4.436,0,0,1,0,0L13.064.719a34.939,34.939,0,0,0,4.81,3.467,32.413,32.413,0,0,0,5.11,2.531A22.137,22.137,0,0,0,29.1,8.176c.5.041,1.032.062,1.568.062a27.121,27.121,0,0,0,6.015-.74A41.3,41.3,0,0,0,42,5.87,43.14,43.14,0,0,0,47.257,3.5l72.171-.812a40.216,40.216,0,0,0,4.836,2.167,38.15,38.15,0,0,0,4.9,1.49,25.119,25.119,0,0,0,5.538.677,23.764,23.764,0,0,0,5.434-.677,33.439,33.439,0,0,0,4.67-1.49,33.437,33.437,0,0,0,4.5-2.167l13.517-.618a3.711,3.711,0,0,1-1.013.357,53.66,53.66,0,0,1-8.21.771,33.578,33.578,0,0,1-2.82,5.808,26.363,26.363,0,0,1-3.553,4.675,15.45,15.45,0,0,1-5.006,3.557A17.473,17.473,0,0,1,135.432,18.438Z" transform="translate(42.463 35.919) rotate(90)" fill="#0082d5" opacity="0.663"/>
  <path id="Path_147" data-name="Path 147" d="M4.717,0A78.317,78.317,0,0,0,1.981,19.2,89.208,89.208,0,0,0,4.717,39.2H4.406S0,29.159,0,19.2,4.406,0,4.406,0Z" transform="translate(67.502 77.976) rotate(90)" fill="#3d5eb7"/>
  <path id="Path_148" data-name="Path 148" d="M4.717,0A78.783,78.783,0,0,0,1.981,19.262,89.74,89.74,0,0,0,4.717,39.317H4.406S0,29.249,0,19.262,4.406,0,4.406,0Z" transform="translate(28.209 156.438) rotate(-90)" fill="#3d5eb7" opacity="0.696"/>
  <path id="Path_149" data-name="Path 149" d="M2.095,0a68.565,68.565,0,0,0-.664,9.378c0,5.091.321,9.094.321,9.094H.936A43.361,43.361,0,0,1,0,9.378,32.371,32.371,0,0,1,1.431,0Z" transform="translate(56.658 44.102) rotate(90)" fill="#3d5eb7"/>
  <path id="Subtraction_9" data-name="Subtraction 9" d="M135.432,0a28.3,28.3,0,0,0-4.6.4,38.27,38.27,0,0,0-3.979.888A35.978,35.978,0,0,0,123,2.583a13.911,13.911,0,0,1-1.818,1.276,15.347,15.347,0,0,1-4.646,1.866,19.485,19.485,0,0,1-3.915.349,33.3,33.3,0,0,1-4.716-.349H54.831a31.083,31.083,0,0,1-4.543.349,18.1,18.1,0,0,1-3.771-.349,14.26,14.26,0,0,1-4.474-1.866,13.371,13.371,0,0,1-1.75-1.275,34.083,34.083,0,0,0-3.715-1.291A35.734,35.734,0,0,0,32.745.4,26.3,26.3,0,0,0,28.317,0a14.745,14.745,0,0,0-6.544,1.345,15.128,15.128,0,0,0-4.82,3.994,29.587,29.587,0,0,0-3.422,5.248A41.268,41.268,0,0,0,10.816,17.1v0h0a44.63,44.63,0,0,0-7.9.866A4.587,4.587,0,0,0,0,20.7l13.064-.808A35.517,35.517,0,0,1,17.874,16a31.121,31.121,0,0,1,5.11-2.841A20.154,20.154,0,0,1,29.1,11.52c.5-.046,1.032-.07,1.568-.07a24.313,24.313,0,0,1,6.015.831A38.024,38.024,0,0,1,42,14.11a41.1,41.1,0,0,1,5.255,2.659l72.171.912a38.306,38.306,0,0,1,4.836-2.433,35.125,35.125,0,0,1,4.9-1.673,22.518,22.518,0,0,1,5.538-.76,21.309,21.309,0,0,1,5.434.76,30.886,30.886,0,0,1,4.67,1.673,32.1,32.1,0,0,1,4.5,2.433l13.517.694a3.45,3.45,0,0,0-1.013-.4,47.954,47.954,0,0,0-8.21-.866,39.963,39.963,0,0,0-2.82-6.52,29.511,29.511,0,0,0-3.553-5.248,15.6,15.6,0,0,0-5.006-3.994A15.794,15.794,0,0,0,135.432,0Z" transform="translate(72.975 34.919) rotate(90)" fill="#0082d5" opacity="0.663"/>
  <rect id="Rectangle_116" data-name="Rectangle 116" width="7.403" height="39.261" transform="translate(67.498 89.624) rotate(90)" fill="#713e3e"/>
  <rect id="Rectangle_117" data-name="Rectangle 117" width="7.403" height="39.261" transform="translate(67.498 112.402) rotate(90)"/>
  <rect id="Rectangle_118" data-name="Rectangle 118" width="7.403" height="39.261" transform="translate(67.498 135.18) rotate(90)" fill="#713e3e"/>
  <path id="Intersection_1" data-name="Intersection 1" d="M0,49.973V.02A17.8,17.8,0,0,1,7.3,1.135l.107.043V49.136a18.551,18.551,0,0,1-5.947.876Q.725,50.012,0,49.973Z" transform="translate(72.91 169.347) rotate(90)" fill="#713e3e"/>
  <path id="Intersection_2" data-name="Intersection 2" d="M7.118,49.973V.02A16.513,16.513,0,0,0,.1,1.135L0,1.178V49.136a17.2,17.2,0,0,0,5.717.876Q6.421,50.012,7.118,49.973Z" transform="translate(73.037 57.926) rotate(90)" fill="#713e3e"/>
</svg>
