<svg xmlns="http://www.w3.org/2000/svg" width="82.958" height="38.776" viewBox="0 0 82.958 38.776">
  <g id="Group_173" data-name="Group 173" transform="translate(-89 -86.724)">
    <path id="Union_11" data-name="Union 11" d="M77.286,28.717v-15.6H74.613a3,3,0,0,1-3-3v-1.8a3,3,0,0,1,3-3h5.509a2.836,2.836,0,0,1,2.836,2.836V28.717a2.836,2.836,0,1,1-5.672,0ZM0,28.717V8.155A2.836,2.836,0,0,1,2.836,5.319H8.345a3,3,0,0,1,3,3v1.8a3,3,0,0,1-3,3H5.673v15.6a2.836,2.836,0,1,1-5.673,0ZM20.726,18.437a3,3,0,0,1-3-3V3a3,3,0,0,1,3-3H62.231a3,3,0,0,1,3,3V15.436a3,3,0,0,1-3,3ZM65.941,11.7V6.028a2.481,2.481,0,1,1,4.963,0V11.7a2.481,2.481,0,1,1-4.963,0Zm-53.887,0V6.028a2.482,2.482,0,1,1,4.964,0V11.7a2.482,2.482,0,1,1-4.964,0Z" transform="translate(89 86.723)" fill="#3fb1f8"/>
    <text id="resistor" transform="translate(95.979 121.5)" fill="#3fb1f8" font-size="20" font-family="Ubuntu-Medium, Ubuntu" font-weight="500" letter-spacing="-0.02em"><tspan x="0" y="0">resistor</tspan></text>
  </g>
</svg>
